<?xml version="1.0" encoding="UTF-8"?>
<svg version="1.1" xmlns="http://www.w3.org/2000/svg" width="270" height="107">
<path d="M0 0 C89.1 0 178.2 0 270 0 C270 35.31 270 70.62 270 107 C180.9 107 91.8 107 0 107 C0 71.69 0 36.38 0 0 Z " fill="#787878" transform="translate(0,0)"/>
<path d="M0 0 C89.1 0 178.2 0 270 0 C270 6.27 270 12.54 270 19 C217.38175972 19.09943604 164.76558971 18.81941406 112.14815855 18.55461788 C99.8859392 18.49296896 87.62371153 18.43305436 75.3614831 18.37324238 C50.24097944 18.25067438 25.12048664 18.12600252 0 18 C0 12.06 0 6.12 0 0 Z " fill="#7D8384" transform="translate(0,0)"/>
<path d="M0 0 C39.6 0 79.2 0 120 0 C120 0.99 120 1.98 120 3 C194.25 3.495 194.25 3.495 270 4 C270 9.28 270 14.56 270 20 C180.9 20 91.8 20 0 20 C0 13.4 0 6.8 0 0 Z " fill="#7C7C7C" transform="translate(0,87)"/>
<path d="M0 0 C89.1 0 178.2 0 270 0 C270 2.97 270 5.94 270 9 C199.38 9 128.76 9 56 9 C56 8.67 56 8.34 56 8 C37.52 7.67 19.04 7.34 0 7 C0 4.69 0 2.38 0 0 Z " fill="#919A9C" transform="translate(0,0)"/>
<path d="M0 0 C26.34435423 -0.02364616 52.68870681 -0.04113141 79.03306961 -0.05181217 C91.27270113 -0.05690924 103.51232589 -0.06384836 115.75195312 -0.07543945 C221.13059387 -0.17333106 221.13059387 -0.17333106 270 1 C270 2.98 270 4.96 270 7 C180.9 7 91.8 7 0 7 C0 4.69 0 2.38 0 0 Z " fill="#8B8C8C" transform="translate(0,18)"/>
<path d="M0 0 C89.1 0 178.2 0 270 0 C270 1.32 270 2.64 270 4 C255.56285752 4.21759758 241.12536775 4.40020905 226.6875 4.5625 C225.55616512 4.57523327 224.42483025 4.58796654 223.25921249 4.60108566 C173.77399348 5.14634043 124.29832431 4.904658 74.8125 4.5625 C73.8841772 4.55610205 72.95585441 4.5497041 71.99940062 4.54311228 C47.99947934 4.37740033 23.9996874 4.19666239 0 4 C0 2.68 0 1.36 0 0 Z " fill="#676D6E" transform="translate(0,0)"/>
<path d="M0 0 C89.1 0 178.2 0 270 0 C270 1.32 270 2.64 270 4 C217.38186491 4.11039067 164.7654599 3.8194134 112.14815855 3.55461788 C99.8859392 3.49296896 87.62371153 3.43305436 75.3614831 3.37324238 C50.24097946 3.25067438 25.12048632 3.12606355 0 3 C0 2.01 0 1.02 0 0 Z " fill="#5A5C5D" transform="translate(0,15)"/>
<path d="M0 0 C14.16950766 -0.02342034 28.3390123 -0.04095729 42.50853539 -0.05181217 C49.08854216 -0.05702288 55.66853589 -0.06408757 62.24853516 -0.07543945 C68.60276034 -0.08633278 74.95697301 -0.09229049 81.31120682 -0.09487724 C83.73118919 -0.09671989 86.1511709 -0.10031807 88.57114792 -0.10573006 C91.96981009 -0.11302605 95.36842105 -0.11398734 98.76708984 -0.11352539 C99.75971832 -0.11712067 100.7523468 -0.12071594 101.77505493 -0.12442017 C107.90798875 -0.11544466 113.91045685 0.27045156 120 1 C120 2.98 120 4.96 120 7 C101.52 7 83.04 7 64 7 C64 6.67 64 6.34 64 6 C32.32 5.505 32.32 5.505 0 5 C0 3.35 0 1.7 0 0 Z " fill="#8E8E8E" transform="translate(0,44)"/>
<path d="M0 0 C12.54530789 -0.02333878 25.09061047 -0.0410235 37.63593578 -0.05181217 C43.46343448 -0.05699444 49.29091815 -0.06400573 55.1184082 -0.07543945 C60.75946001 -0.08643604 66.40049751 -0.09231173 72.04155922 -0.09487724 C74.17613258 -0.09670168 76.31070531 -0.10026292 78.44527245 -0.10573006 C92.32903578 -0.13982214 106.13822971 0.20626761 120 1 C120 2.65 120 4.3 120 6 C107.27552296 6.85310742 94.62565164 7.12766726 81.875 7.0625 C80.12630339 7.05746474 78.37760535 7.05290549 76.62890625 7.04882812 C72.41923411 7.03800641 68.20963387 7.02085884 64 7 C64 6.67 64 6.34 64 6 C32.32 5.505 32.32 5.505 0 5 C0 3.35 0 1.7 0 0 Z " fill="#7A7A7A" transform="translate(0,64)"/>
<path d="M0 0 C39.6 0 79.2 0 120 0 C120 1.65 120 3.3 120 5 C95.59868688 6.26059522 71.24590733 5.9436615 46.82458496 5.60510254 C41.52699912 5.53315976 36.22931766 5.46910884 30.93164062 5.40429688 C20.62098865 5.27704136 10.31046746 5.14137019 0 5 C0 3.35 0 1.7 0 0 Z " fill="#585858" transform="translate(0,55)"/>
<path d="M0 0 C10.62579814 -0.0235507 21.25158971 -0.04112621 31.87740898 -0.05181217 C36.81558045 -0.05695029 41.7537336 -0.06387443 46.69189453 -0.07543945 C71.14870205 -0.13123698 95.55883425 0.07717984 120 1 C120 1.99 120 2.98 120 4 C107.64946173 4.96843418 95.38275733 5.1217744 83 5.0625 C81.14583456 5.05746856 79.29166778 5.0529086 77.4375 5.04882812 C72.95829932 5.03796744 68.47916512 5.02079612 64 5 C64 4.67 64 4.34 64 4 C32.32 3.505 32.32 3.505 0 3 C0 2.01 0 1.02 0 0 Z " fill="#929292" transform="translate(0,76)"/>
<path d="M0 0 C51.15 0 102.3 0 155 0 C155 0.99 155 1.98 155 3 C103.85 3 52.7 3 0 3 C0 2.01 0 1.02 0 0 Z " fill="#1D2020" transform="translate(0,11)"/>
<path d="M0 0 C30.36 0 60.72 0 92 0 C92 0.33 92 0.66 92 1 C105.86 1.495 105.86 1.495 120 2 C120 2.33 120 2.66 120 3 C95.60936585 4.1587883 71.23681781 4.12187426 46.82458496 4.06866455 C41.52694101 4.05825438 36.22929195 4.05382987 30.93164062 4.04882812 C20.62108077 4.03824822 10.31054294 4.02128532 0 4 C0 2.68 0 1.36 0 0 Z " fill="#5F5F5F" transform="translate(0,49)"/>
<path d="M0 0 C28.38 0 56.76 0 86 0 C86 0.33 86 0.66 86 1 C97.22 1.33 108.44 1.66 120 2 C120 2.99 120 3.98 120 5 C108.21184671 5.96991135 96.7922094 5.89648376 85 5 C85 4.34 85 3.68 85 3 C83.3140271 3.25124634 83.3140271 3.25124634 81.59399414 3.50756836 C73.92497373 4.35263665 66.19685321 4.00830014 58.49609375 3.87890625 C56.8050251 3.85456616 55.1139492 3.83072465 53.42286682 3.80735779 C48.99892852 3.74490332 44.57512051 3.67572991 40.15130615 3.60510254 C35.6263211 3.53406731 31.1012446 3.46946186 26.57617188 3.40429688 C17.71734738 3.27578355 8.85864729 3.14016378 0 3 C0 2.01 0 1.02 0 0 Z " fill="#3E3E3E" transform="translate(0,79)"/>
<path d="M0 0 C12.69296247 -0.02332526 25.38591972 -0.04101682 38.07889938 -0.05181217 C43.97480789 -0.05699731 49.87070158 -0.06401409 55.76660156 -0.07543945 C61.47248731 -0.0864255 67.17835893 -0.09230959 72.88425446 -0.09487724 C75.04477409 -0.09670352 77.20529308 -0.10026858 79.36580658 -0.10573006 C92.94501459 -0.13864387 106.44481267 0.17488893 120 1 C120 1.33 120 1.66 120 2 C105.37790367 2.89005436 90.81855902 3.13468099 76.171875 3.09765625 C73.95843539 3.09578524 71.74499535 3.09436458 69.53155518 3.09336853 C63.77786056 3.08959703 58.02419223 3.07981432 52.27050781 3.06866455 C46.37044632 3.05833331 40.47038048 3.05384612 34.5703125 3.04882812 C23.04686362 3.03818579 11.52343401 3.02117607 0 3 C0 2.01 0 1.02 0 0 Z " fill="#959595" transform="translate(0,60)"/>
<path d="M0 0 C12.98827164 -0.0232992 25.9765382 -0.04100388 38.96482658 -0.05181217 C44.99755473 -0.05700287 51.03026844 -0.0640302 57.06298828 -0.07543945 C62.89854191 -0.08640517 68.73408178 -0.09230546 74.56964493 -0.09487724 C76.7820571 -0.09670707 78.99446863 -0.10027949 81.20687485 -0.10573006 C94.1767037 -0.13637565 107.05937052 0.09864642 120 1 C120 1.33 120 1.66 120 2 C106.26201431 3.03128988 92.58026959 3.13115912 78.80859375 3.09765625 C76.52360566 3.09578654 74.23861717 3.09436526 71.95362854 3.09336853 C65.99767918 3.08958683 60.04175498 3.07979471 54.08581543 3.06866455 C47.98494812 3.05835593 41.88407667 3.05385085 35.78320312 3.04882812 C23.85545782 3.03816767 11.92773102 3.0211448 0 3 C0 2.01 0 1.02 0 0 Z " fill="#878787" transform="translate(0,72)"/>
<path d="M0 0 C12.54530789 -0.02333878 25.09061047 -0.0410235 37.63593578 -0.05181217 C43.46343448 -0.05699444 49.29091815 -0.06400573 55.1184082 -0.07543945 C60.75946001 -0.08643604 66.40049751 -0.09231173 72.04155922 -0.09487724 C74.17613258 -0.09670168 76.31070531 -0.10026292 78.44527245 -0.10573006 C92.32903578 -0.13982214 106.13822971 0.20626761 120 1 C120 1.33 120 1.66 120 2 C105.67166884 2.93085832 91.40625786 3.13347798 77.05078125 3.09765625 C74.81349215 3.09578569 72.57620263 3.09436481 70.33891296 3.09336853 C64.51780011 3.08959356 58.69671314 3.07980763 52.87561035 3.06866455 C46.90861359 3.05834103 40.94161254 3.05384773 34.97460938 3.04882812 C23.31639502 3.03817962 11.65819968 3.0211654 0 3 C0 2.01 0 1.02 0 0 Z " fill="#8A8A8A" transform="translate(0,64)"/>
<path d="M0 0 C29.04 0 58.08 0 88 0 C88 0.33 88 0.66 88 1 C103.84 1.495 103.84 1.495 120 2 C120 2.33 120 2.66 120 3 C80.4 3 40.8 3 0 3 C0 2.01 0 1.02 0 0 Z " fill="#3A3A3A" transform="translate(0,69)"/>
<path d="M0 0 C28.05 0 56.1 0 85 0 C85 0.66 85 1.32 85 2 C90.94 2 96.88 2 103 2 C103 2.33 103 2.66 103 3 C69.01 3 35.02 3 0 3 C0 2.01 0 1.02 0 0 Z " fill="#A9A9A9" transform="translate(0,82)"/>
<path d="M0 0 C7.63304264 -0.02330676 15.26608153 -0.04100763 22.8991518 -0.05181217 C26.44458091 -0.05700126 29.98998543 -0.06402552 33.53540039 -0.07543945 C37.6238629 -0.08851728 41.71230012 -0.09326103 45.80078125 -0.09765625 C47.05643387 -0.10281754 48.31208649 -0.10797882 49.60578918 -0.11329651 C56.79572229 -0.11374891 63.85403471 0.19318363 71 1 C71 1.33 71 1.66 71 2 C62.28674158 2.88077588 53.67577432 3.13443041 44.921875 3.09765625 C43.62928772 3.0962413 42.33670044 3.09482635 41.00494385 3.09336853 C37.6118975 3.08959801 34.21889574 3.07981625 30.8258667 3.06866455 C27.34615685 3.05833111 23.86643961 3.05384567 20.38671875 3.04882812 C13.59112781 3.03818754 6.79556606 3.02117911 0 3 C0 2.01 0 1.02 0 0 Z " fill="#808D8F" transform="translate(0,0)"/>
<path d="M0 0 C1.57778229 -0.00374634 1.57778229 -0.00374634 3.18743896 -0.00756836 C6.15363943 -0.01341367 9.11973615 -0.01201474 12.0859375 -0.0078125 C12.94159302 -0.00979645 13.79724854 -0.0117804 14.67883301 -0.01382446 C19.74649201 0.00582502 24.60805783 0.4002746 29.625 1.125 C29.625 1.455 29.625 1.785 29.625 2.125 C23.17074882 2.8676041 16.82327734 3.2738884 10.328125 3.2578125 C9.44421082 3.25913177 8.56029663 3.26045105 7.64959717 3.2618103 C4.72469664 3.26373479 1.79989102 3.25733827 -1.125 3.25 C-2.1365918 3.24911377 -3.14818359 3.24822754 -4.19042969 3.24731445 C-32.92175206 3.21832445 -61.64954185 2.66200514 -90.375 2.125 C-90.375 1.795 -90.375 1.465 -90.375 1.125 C-60.2513961 0.55810042 -30.12976779 0.02509721 0 0 Z " fill="#0A0A0A" transform="translate(90.375,41.875)"/>
</svg>
